<mxfile host="app.diagrams.net" modified="2023-06-05T16:40:56.285Z" agent="Mozilla/5.0 (Windows NT 10.0; Win64; x64) AppleWebKit/537.36 (KHTML, like Gecko) Chrome/114.0.0.0 Safari/537.36" etag="S5zgD_d3sRKSw4LM25hm" version="21.3.7" type="github">
  <diagram name="第 1 页" id="Vmxaj13QE8DyC58QNTcc">
    <mxGraphModel dx="545" dy="386" grid="1" gridSize="10" guides="1" tooltips="1" connect="1" arrows="1" fold="1" page="1" pageScale="1" pageWidth="827" pageHeight="1169" math="0" shadow="0">
      <root>
        <mxCell id="0" />
        <mxCell id="1" parent="0" />
        <mxCell id="TxSVMWOEbWzB03LnQjsV-37" value="" style="endArrow=none;html=1;rounded=0;exitX=1;exitY=0.5;exitDx=0;exitDy=0;strokeColor=#E1D5E7;fontColor=#808080;" edge="1" parent="1">
          <mxGeometry width="50" height="50" relative="1" as="geometry">
            <mxPoint x="200" y="194.66" as="sourcePoint" />
            <mxPoint x="500" y="195.16" as="targetPoint" />
          </mxGeometry>
        </mxCell>
        <mxCell id="TxSVMWOEbWzB03LnQjsV-1" value="Q0" style="text;html=1;strokeColor=none;fillColor=none;align=center;verticalAlign=middle;whiteSpace=wrap;rounded=0;fontColor=#E1D5E7;" vertex="1" parent="1">
          <mxGeometry x="120" y="180" width="60" height="30" as="geometry" />
        </mxCell>
        <mxCell id="TxSVMWOEbWzB03LnQjsV-2" value="Q1" style="text;html=1;strokeColor=none;fillColor=none;align=center;verticalAlign=middle;whiteSpace=wrap;rounded=0;fontColor=#E1D5E7;" vertex="1" parent="1">
          <mxGeometry x="120" y="220" width="60" height="30" as="geometry" />
        </mxCell>
        <mxCell id="TxSVMWOEbWzB03LnQjsV-3" value="Q2" style="text;html=1;strokeColor=none;fillColor=none;align=center;verticalAlign=middle;whiteSpace=wrap;rounded=0;fontColor=#E1D5E7;" vertex="1" parent="1">
          <mxGeometry x="120" y="260" width="60" height="30" as="geometry" />
        </mxCell>
        <mxCell id="TxSVMWOEbWzB03LnQjsV-5" value="" style="endArrow=none;html=1;rounded=0;exitX=1;exitY=0.5;exitDx=0;exitDy=0;strokeColor=#E1D5E7;fontColor=#808080;" edge="1" parent="1" source="TxSVMWOEbWzB03LnQjsV-25">
          <mxGeometry width="50" height="50" relative="1" as="geometry">
            <mxPoint x="200" y="234.5" as="sourcePoint" />
            <mxPoint x="500" y="235" as="targetPoint" />
          </mxGeometry>
        </mxCell>
        <mxCell id="TxSVMWOEbWzB03LnQjsV-6" value="" style="endArrow=none;html=1;rounded=0;exitX=1;exitY=0.5;exitDx=0;exitDy=0;strokeColor=#E1D5E7;fontColor=#808080;" edge="1" parent="1">
          <mxGeometry width="50" height="50" relative="1" as="geometry">
            <mxPoint x="200" y="274.5" as="sourcePoint" />
            <mxPoint x="500" y="275" as="targetPoint" />
          </mxGeometry>
        </mxCell>
        <mxCell id="TxSVMWOEbWzB03LnQjsV-7" value="" style="endArrow=none;html=1;rounded=0;entryX=0.75;entryY=0;entryDx=0;entryDy=0;exitX=0.75;exitY=1;exitDx=0;exitDy=0;strokeColor=#E1D5E7;fontColor=#E1D5E7;" edge="1" parent="1" source="TxSVMWOEbWzB03LnQjsV-3" target="TxSVMWOEbWzB03LnQjsV-1">
          <mxGeometry width="50" height="50" relative="1" as="geometry">
            <mxPoint x="370" y="370" as="sourcePoint" />
            <mxPoint x="420" y="320" as="targetPoint" />
          </mxGeometry>
        </mxCell>
        <mxCell id="TxSVMWOEbWzB03LnQjsV-8" value="&lt;font&gt;|0&amp;gt;&lt;/font&gt;" style="text;html=1;strokeColor=none;fillColor=none;align=center;verticalAlign=middle;whiteSpace=wrap;rounded=0;fontColor=#E1D5E7;" vertex="1" parent="1">
          <mxGeometry x="150" y="180" width="60" height="30" as="geometry" />
        </mxCell>
        <mxCell id="TxSVMWOEbWzB03LnQjsV-9" value="&lt;font&gt;|0&amp;gt;&lt;/font&gt;" style="text;html=1;strokeColor=none;fillColor=none;align=center;verticalAlign=middle;whiteSpace=wrap;rounded=0;fontColor=#E1D5E7;" vertex="1" parent="1">
          <mxGeometry x="150" y="220" width="60" height="30" as="geometry" />
        </mxCell>
        <mxCell id="TxSVMWOEbWzB03LnQjsV-10" value="&lt;font&gt;|0&amp;gt;&lt;/font&gt;" style="text;html=1;strokeColor=none;fillColor=none;align=center;verticalAlign=middle;whiteSpace=wrap;rounded=0;fontColor=#E1D5E7;" vertex="1" parent="1">
          <mxGeometry x="150" y="260" width="60" height="30" as="geometry" />
        </mxCell>
        <mxCell id="TxSVMWOEbWzB03LnQjsV-11" value="&lt;font&gt;1&lt;/font&gt;" style="text;html=1;strokeColor=none;fillColor=none;align=center;verticalAlign=middle;whiteSpace=wrap;rounded=0;fontColor=#E1D5E7;" vertex="1" parent="1">
          <mxGeometry x="200" y="150" width="60" height="30" as="geometry" />
        </mxCell>
        <mxCell id="TxSVMWOEbWzB03LnQjsV-12" value="&lt;font&gt;2&lt;/font&gt;" style="text;html=1;strokeColor=none;fillColor=none;align=center;verticalAlign=middle;whiteSpace=wrap;rounded=0;fontColor=#E1D5E7;" vertex="1" parent="1">
          <mxGeometry x="260" y="150" width="60" height="30" as="geometry" />
        </mxCell>
        <mxCell id="TxSVMWOEbWzB03LnQjsV-13" value="&lt;font&gt;3&lt;/font&gt;" style="text;html=1;strokeColor=none;fillColor=none;align=center;verticalAlign=middle;whiteSpace=wrap;rounded=0;fontColor=#E1D5E7;" vertex="1" parent="1">
          <mxGeometry x="320" y="150" width="60" height="30" as="geometry" />
        </mxCell>
        <mxCell id="TxSVMWOEbWzB03LnQjsV-14" value="&lt;font&gt;4&lt;/font&gt;" style="text;html=1;strokeColor=none;fillColor=none;align=center;verticalAlign=middle;whiteSpace=wrap;rounded=0;fontColor=#E1D5E7;" vertex="1" parent="1">
          <mxGeometry x="380" y="150" width="60" height="30" as="geometry" />
        </mxCell>
        <mxCell id="TxSVMWOEbWzB03LnQjsV-15" value="&lt;font&gt;5&lt;/font&gt;" style="text;html=1;strokeColor=none;fillColor=none;align=center;verticalAlign=middle;whiteSpace=wrap;rounded=0;fontColor=#E1D5E7;" vertex="1" parent="1">
          <mxGeometry x="440" y="150" width="60" height="30" as="geometry" />
        </mxCell>
        <mxCell id="TxSVMWOEbWzB03LnQjsV-19" style="edgeStyle=orthogonalEdgeStyle;rounded=0;orthogonalLoop=1;jettySize=auto;html=1;exitX=0.5;exitY=1;exitDx=0;exitDy=0;entryX=0.5;entryY=0;entryDx=0;entryDy=0;endArrow=none;endFill=0;strokeColor=#FF99FF;strokeWidth=4;" edge="1" parent="1" source="TxSVMWOEbWzB03LnQjsV-16" target="TxSVMWOEbWzB03LnQjsV-18">
          <mxGeometry relative="1" as="geometry" />
        </mxCell>
        <mxCell id="TxSVMWOEbWzB03LnQjsV-16" value="&lt;font color=&quot;#6600cc&quot; style=&quot;font-size: 25px;&quot;&gt;+&lt;/font&gt;" style="ellipse;whiteSpace=wrap;html=1;aspect=fixed;strokeColor=none;fillColor=#FF99FF;" vertex="1" parent="1">
          <mxGeometry x="215" y="180" width="30" height="30" as="geometry" />
        </mxCell>
        <mxCell id="TxSVMWOEbWzB03LnQjsV-20" value="" style="endArrow=none;html=1;rounded=0;exitX=1;exitY=0.5;exitDx=0;exitDy=0;strokeColor=#E1D5E7;fontColor=#808080;" edge="1" parent="1" target="TxSVMWOEbWzB03LnQjsV-18">
          <mxGeometry width="50" height="50" relative="1" as="geometry">
            <mxPoint x="200" y="234.5" as="sourcePoint" />
            <mxPoint x="500" y="235" as="targetPoint" />
          </mxGeometry>
        </mxCell>
        <mxCell id="TxSVMWOEbWzB03LnQjsV-18" value="" style="ellipse;whiteSpace=wrap;html=1;aspect=fixed;fillColor=#FF99FF;strokeColor=none;" vertex="1" parent="1">
          <mxGeometry x="220" y="225" width="20" height="20" as="geometry" />
        </mxCell>
        <mxCell id="TxSVMWOEbWzB03LnQjsV-22" value="H" style="whiteSpace=wrap;html=1;aspect=fixed;strokeColor=none;fillColor=#66B2FF;" vertex="1" parent="1">
          <mxGeometry x="215" y="260" width="30" height="30" as="geometry" />
        </mxCell>
        <mxCell id="TxSVMWOEbWzB03LnQjsV-23" value="Y" style="whiteSpace=wrap;html=1;aspect=fixed;strokeColor=none;fillColor=#66B2FF;" vertex="1" parent="1">
          <mxGeometry x="275" y="180" width="30" height="30" as="geometry" />
        </mxCell>
        <mxCell id="TxSVMWOEbWzB03LnQjsV-26" value="" style="endArrow=none;html=1;rounded=0;exitX=1;exitY=0.5;exitDx=0;exitDy=0;strokeColor=#E1D5E7;fontColor=#808080;" edge="1" parent="1" source="TxSVMWOEbWzB03LnQjsV-18" target="TxSVMWOEbWzB03LnQjsV-25">
          <mxGeometry width="50" height="50" relative="1" as="geometry">
            <mxPoint x="240" y="235" as="sourcePoint" />
            <mxPoint x="500" y="235" as="targetPoint" />
          </mxGeometry>
        </mxCell>
        <mxCell id="TxSVMWOEbWzB03LnQjsV-25" value="Z" style="whiteSpace=wrap;html=1;aspect=fixed;strokeColor=none;fillColor=#66B2FF;" vertex="1" parent="1">
          <mxGeometry x="455" y="220" width="30" height="30" as="geometry" />
        </mxCell>
        <mxCell id="TxSVMWOEbWzB03LnQjsV-27" style="edgeStyle=orthogonalEdgeStyle;rounded=0;orthogonalLoop=1;jettySize=auto;html=1;exitX=0.5;exitY=1;exitDx=0;exitDy=0;entryX=0.5;entryY=0;entryDx=0;entryDy=0;endArrow=none;endFill=0;strokeColor=#FF99FF;strokeWidth=4;" edge="1" parent="1" source="TxSVMWOEbWzB03LnQjsV-28" target="TxSVMWOEbWzB03LnQjsV-29">
          <mxGeometry relative="1" as="geometry" />
        </mxCell>
        <mxCell id="TxSVMWOEbWzB03LnQjsV-28" value="&lt;font color=&quot;#6600cc&quot; style=&quot;font-size: 25px;&quot;&gt;+&lt;/font&gt;" style="ellipse;whiteSpace=wrap;html=1;aspect=fixed;strokeColor=none;fillColor=#FF99FF;" vertex="1" parent="1">
          <mxGeometry x="335" y="180" width="30" height="30" as="geometry" />
        </mxCell>
        <mxCell id="TxSVMWOEbWzB03LnQjsV-29" value="" style="ellipse;whiteSpace=wrap;html=1;aspect=fixed;fillColor=#FF99FF;strokeColor=none;" vertex="1" parent="1">
          <mxGeometry x="340" y="225" width="20" height="20" as="geometry" />
        </mxCell>
        <mxCell id="TxSVMWOEbWzB03LnQjsV-30" style="edgeStyle=orthogonalEdgeStyle;rounded=0;orthogonalLoop=1;jettySize=auto;html=1;exitX=0.5;exitY=1;exitDx=0;exitDy=0;entryX=0.5;entryY=0;entryDx=0;entryDy=0;endArrow=none;endFill=0;strokeColor=#FF99FF;strokeWidth=4;" edge="1" parent="1" source="TxSVMWOEbWzB03LnQjsV-31" target="TxSVMWOEbWzB03LnQjsV-32">
          <mxGeometry relative="1" as="geometry" />
        </mxCell>
        <mxCell id="TxSVMWOEbWzB03LnQjsV-31" value="&lt;font color=&quot;#6600cc&quot; style=&quot;font-size: 25px;&quot;&gt;+&lt;/font&gt;" style="ellipse;whiteSpace=wrap;html=1;aspect=fixed;strokeColor=none;fillColor=#FF99FF;" vertex="1" parent="1">
          <mxGeometry x="395" y="225" width="30" height="30" as="geometry" />
        </mxCell>
        <mxCell id="TxSVMWOEbWzB03LnQjsV-32" value="" style="ellipse;whiteSpace=wrap;html=1;aspect=fixed;fillColor=#FF99FF;strokeColor=none;" vertex="1" parent="1">
          <mxGeometry x="400" y="270" width="20" height="20" as="geometry" />
        </mxCell>
      </root>
    </mxGraphModel>
  </diagram>
</mxfile>
